<?xml version="1.0" encoding="UTF-8" standalone="no"?>
<!-- Created with Inkscape (http://www.inkscape.org/) -->

<svg
   width="766"
   height="141"
   viewBox="0 0 202.29693 37.237425"
   version="1.1"
   id="svg1328"
   xml:space="preserve"
   xmlns="http://www.w3.org/2000/svg"
   xmlns:svg="http://www.w3.org/2000/svg"><defs
     id="defs1325"><rect
       x="-2741.5581"
       y="-226.90446"
       width="2558.9421"
       height="1439.4711"
       id="rect1189" /><filter
       style="color-interpolation-filters:sRGB"
       id="filter20247"
       x="0"
       y="0"
       width="1"
       height="1"><feColorMatrix
         values="1 0 0 0.02 -0 0 1 0 0.02 -0 0 0 1 0.02 -0 0 0 0 1 0"
         id="feColorMatrix20245"
         result="fbSourceGraphic" /><feColorMatrix
         result="fbSourceGraphicAlpha"
         in="fbSourceGraphic"
         values="0 0 0 -1 0 0 0 0 -1 0 0 0 0 -1 0 0 0 0 1 0"
         id="feColorMatrix20399" /><feColorMatrix
         id="feColorMatrix20401"
         values="1 0 0 0.02 -0 0 1 0 0.02 -0 0 0 1 0.02 -0 0 0 0 1 0"
         in="fbSourceGraphic" /></filter></defs><g
     id="layer1"><g
       id="g1892"
       transform="matrix(0.99894419,0,0,0.99277673,-26.0483,8.7048922e-4)"><path
         style="opacity:0.501661;fill:#ffffff;fill-opacity:1;stroke:none;stroke-width:0.125464;stroke-miterlimit:4;stroke-dasharray:none;stroke-opacity:1"
         d="M 27.307272,3.3184967 178.7086,34.237855 l 41.54379,0.502305 4.60795,-0.981575 2.29706,-1.854288 -0.95765,-27.3700419 -0.70897,-2.1093436 -5.42753,0.013442 z"
         id="path1167" /><text
         xml:space="preserve"
         style="font-weight:bold;font-size:28.1288px;font-family:'DejaVu Sans';-inkscape-font-specification:'DejaVu Sans Bold';display:inline;fill:#2010ed;fill-opacity:1;stroke:#ffffff;stroke-width:0.781601;stroke-miterlimit:4;stroke-dasharray:none;stroke-opacity:1"
         x="30.474735"
         y="29.743309"
         id="text1175"
         transform="scale(1.0035267,0.99648569)"><tspan
           id="tspan1173"
           style="fill:#2010ed;fill-opacity:1;stroke:#ffffff;stroke-width:0.781601;stroke-miterlimit:4;stroke-dasharray:none;stroke-opacity:1"
           x="30.474735"
           y="29.743309">B1010 Code</tspan></text><g
         id="g1845"
         transform="matrix(0.88548969,0,0,1,26.07465,0)"><rect
           style="fill:none;fill-opacity:1;stroke:#ffffff;stroke-width:1.99688;stroke-miterlimit:4;stroke-dasharray:none;stroke-opacity:1"
           id="rect1181"
           width="225.31523"
           height="34.080471"
           x="0.99612933"
           y="2.4249148"
           rx="4.3818974"
           ry="4.4926505" /><rect
           style="fill:none;fill-opacity:1;stroke:#2010ed;stroke-width:1.99688;stroke-miterlimit:4;stroke-dasharray:none;stroke-opacity:1"
           id="rect1183"
           width="225.31523"
           height="34.080471"
           x="2.3904626"
           y="1.0012182"
           rx="4.3818974"
           ry="4.4926505" /></g></g><path
       style="fill:#000000;stroke:#020202;stroke-width:0.294779"
       d="M 28.593595,73.113895 V 36.21192 l 18.644792,0.135198 c 19.755282,0.14325 20.309149,0.179068 25.741911,1.664713 5.49069,1.501486 9.300259,4.253663 11.182265,8.078491 2.437165,4.953082 2.551404,11.648831 0.275377,16.140356 -1.606405,3.170089 -4.083457,5.140518 -8.679653,6.90443 -1.540222,0.591101 -2.901289,1.170469 -3.024595,1.287481 -0.123306,0.117013 1.07055,0.582897 2.653014,1.035295 4.464801,1.276406 6.40605,2.318764 8.781753,4.715373 3.702219,3.734804 4.969915,7.12068 4.976706,13.292269 0.0048,4.322266 -0.422896,6.399155 -1.968306,9.559033 -2.017328,4.124801 -6.966187,7.676101 -12.745079,9.145881 -5.761895,1.46545 -7.142642,1.55239 -27.046003,1.70312 l -18.792182,0.14231 z m 35.87883,25.717035 c 3.766368,-1.235753 6.007142,-3.177627 7.208371,-6.246831 0.924006,-2.360879 0.920257,-7.12805 -0.0075,-9.499688 -0.815345,-2.084349 -2.49299,-4.014267 -4.384412,-5.043707 -2.690751,-1.46449 -4.45214,-1.683732 -13.565382,-1.688502 l -8.327516,-0.0044 v 11.676026 11.676029 l 8.622296,-0.133974 c 7.655961,-0.118958 8.827594,-0.201334 10.454113,-0.734997 z M 60.757562,65.73691 C 66.099294,64.964103 68.89509,62.029581 69.20781,56.867361 69.413038,53.479592 68.773511,51.628702 66.672548,49.52992 64.011466,46.871603 63.57404,46.774116 53.723532,46.644056 l -8.327516,-0.109952 v 9.748233 9.748232 l 6.70623,-0.0058 c 3.688426,-0.0032 7.583319,-0.132731 8.655316,-0.28782 z"
       id="path1"
       transform="scale(0.26409521)" /><path
       style="fill:#000000;stroke:#020202;stroke-width:0.294779"
       d="m 112.6057,104.64666 v -5.306027 h 8.84338 8.84338 V 72.810494 c 0,-21.587281 -0.0715,-26.53014 -0.38365,-26.53014 -0.39359,0 -15.62354,3.028314 -17.08202,3.396579 l -0.81065,0.204686 v -5.119351 -5.11935 l 8.32752,-1.696121 8.32752,-1.696121 8.62229,0.0036 8.6223,0.0036 v 31.541388 31.541388 h 8.84338 8.84338 v 5.306028 5.30603 H 138.10411 112.6057 Z"
       id="path2"
       transform="scale(0.26409521)" /><path
       style="fill:#000000;stroke:#020202;stroke-width:0.294779"
       d="m 206.19814,111.11611 c -15.17734,-1.48118 -24.49885,-12.299173 -26.36605,-30.598891 -1.21608,-11.918379 0.68182,-24.2967 4.87588,-31.80103 5.30578,-9.49351 15.22657,-14.556857 27.10062,-13.831549 11.37414,0.694771 19.1439,5.69684 23.98867,15.443571 2.71403,5.46008 4.10441,11.969658 4.36126,20.418827 0.40692,13.385428 -2.20256,23.548809 -7.88283,30.701992 -4.50012,5.66701 -10.88313,8.89958 -19.11437,9.68015 -3.4135,0.3237 -3.5143,0.32351 -6.96318,-0.0131 z m 8.22557,-10.90589 c 3.62595,-1.356639 6.21015,-4.906145 7.5007,-10.302525 1.12638,-4.709887 1.36785,-7.739328 1.3628,-17.097201 -0.005,-9.194606 -0.2998,-12.651163 -1.47271,-17.265981 -0.65258,-2.567581 -2.31862,-5.771209 -3.74944,-7.209797 -2.54967,-2.563507 -6.82351,-3.738865 -10.69019,-2.939937 -5.92939,1.225121 -8.90311,5.470421 -10.37421,14.810275 -0.67325,4.274413 -0.75778,20.297915 -0.13025,24.691392 0.54941,3.84662 1.59798,7.853325 2.54358,9.71939 1.60109,3.159587 4.56673,5.504334 7.82923,6.190064 1.89457,0.39821 5.27321,0.11793 7.18049,-0.59568 z"
       id="path3"
       transform="scale(0.26409521)" /><path
       style="fill:#000000;stroke:#020202;stroke-width:0.294779"
       d="m 261.17448,104.64666 v -5.306027 h 8.84338 8.84338 V 72.810494 c 0,-22.328301 -0.0643,-26.53014 -0.40577,-26.53014 -0.37765,0 -15.73883,3.066311 -17.20729,3.434822 l -0.66326,0.166443 v -5.119351 -5.11935 l 8.32752,-1.696121 8.32752,-1.696121 8.62229,0.0036 8.6223,0.0036 v 31.541388 31.541388 h 8.99077 8.99077 v 5.306028 5.30603 h -25.64581 -25.6458 z"
       id="path4"
       transform="scale(0.26409521)" /><path
       style="fill:#000000;stroke:#020202;stroke-width:0.294779"
       d="m 354.76692,111.11582 c -7.92552,-0.76143 -14.72048,-4.35686 -19.02169,-10.065 -5.22384,-6.932554 -7.65584,-15.890638 -7.65584,-28.19967 0,-20.682443 8.12744,-34.018393 22.66589,-37.191456 7.38977,-1.612839 15.3785,-0.840228 21.42653,2.072216 8.4832,4.085109 13.76622,12.336066 15.94882,24.908697 0.79397,4.573572 0.71438,17.052315 -0.13839,21.698889 -2.43699,13.278559 -8.86546,21.905494 -18.89551,25.357564 -3.69308,1.27107 -9.68856,1.86466 -14.32981,1.41876 z m 8.22557,-10.9056 c 2.14035,-0.800803 4.52786,-2.993301 5.74381,-5.274663 1.13952,-2.137964 2.20224,-6.159458 2.73643,-10.355055 0.52574,-4.129193 0.52405,-19.475401 -0.003,-23.266402 -0.8724,-6.280405 -2.45,-10.54996 -4.78864,-12.959761 -2.47142,-2.546633 -6.86953,-3.758833 -10.73788,-2.95956 -6.06994,1.254161 -9.11378,5.864394 -10.5105,15.919321 -0.52661,3.791001 -0.52829,19.137209 -0.003,23.266402 0.50197,3.942564 1.54701,8.05172 2.55218,10.035334 1.60109,3.159587 4.56673,5.504334 7.82923,6.190064 1.89457,0.39821 5.27321,0.11793 7.18049,-0.59568 z"
       id="path5"
       transform="scale(0.26409521)" /><path
       style="fill:#000000;stroke:#020202;stroke-width:0.294779"
       d="m 475.60942,111.10684 c -17.4008,-1.25745 -30.12424,-10.76888 -34.28754,-25.631722 -2.07054,-7.39175 -2.01411,-17.833801 0.13648,-25.255054 3.15721,-10.894869 11.63344,-19.444255 22.81908,-23.016035 11.53229,-3.682471 24.73512,-3.064813 36.03677,1.685882 l 2.28454,0.960314 v 5.868079 c 0,3.227443 -0.069,5.868078 -0.15328,5.868078 -0.0843,0 -1.37765,-0.615779 -2.8741,-1.368399 -3.16032,-1.58944 -6.56837,-2.794546 -10.01124,-3.540029 -3.67069,-0.794811 -11.92976,-0.729172 -15.0054,0.119255 -4.44219,1.225396 -8.70264,3.914474 -11.43867,7.21978 -1.79945,2.17386 -3.87811,6.28283 -4.70428,9.299139 -1.87467,6.844373 -1.44366,16.425636 1.01508,22.564716 1.77435,4.430277 5.72646,9.033683 9.61675,11.201573 8.0702,4.497163 20.17184,4.045583 30.51388,-1.138659 l 3.04126,-1.524519 v 5.957451 5.95745 l -3.02149,1.1941 c -5.4522,2.15473 -9.60487,3.12522 -15.40222,3.59958 -3.88151,0.31759 -3.88034,0.3176 -8.56562,-0.021 z"
       id="path6"
       transform="scale(0.26409521)" /><path
       style="fill:#000000;stroke:#020202;stroke-width:0.294779"
       d="m 543.81637,111.13187 c -14.94451,-1.41739 -23.9896,-9.40081 -26.05055,-22.992851 -1.18321,-7.80326 0.13232,-15.645204 3.62398,-21.602818 2.40812,-4.108825 7.78516,-8.456616 12.62388,-10.20747 4.60406,-1.665943 7.89828,-2.185201 13.8337,-2.180566 4.19442,0.0033 5.92359,0.131344 8.25382,0.611306 11.18942,2.304707 18.50642,8.868472 21.06734,18.898627 1.9585,7.670691 1.20945,16.694516 -1.92885,23.236999 -2.72721,5.685463 -8.28295,10.381643 -14.89324,12.589013 -4.22344,1.41033 -11.44421,2.13011 -16.53008,1.64776 z m 8.7429,-10.4771 c 4.65901,-1.58577 7.52975,-5.279733 8.92475,-11.484024 0.6308,-2.805494 0.6308,-10.164797 0,-12.97029 -1.75505,-7.805646 -5.87125,-11.727255 -12.7523,-12.149456 -2.5862,-0.158682 -5.53803,0.380478 -7.46487,1.363476 -3.13632,1.600034 -5.64206,5.115691 -6.88909,9.665676 -0.53525,1.952963 -0.63021,3.098892 -0.63021,7.605449 0,4.506557 0.095,5.652488 0.63021,7.605448 1.65052,6.022183 4.97335,9.559779 10.07966,10.731141 2.06293,0.47323 6.18065,0.28649 8.10185,-0.36742 z"
       id="path7"
       transform="scale(0.26409521)" /><path
       style="fill:#000000;stroke:#020202;stroke-width:0.294779"
       d="m 611.0954,111.11813 c -6.00356,-0.81474 -11.10434,-4.00628 -14.66746,-9.17738 -2.65878,-3.858651 -4.10703,-7.498925 -4.9492,-12.440143 -0.56887,-3.337724 -0.57508,-10.132632 -0.0124,-13.601607 1.75149,-10.798675 8.34602,-18.931218 17.253,-21.276846 2.52711,-0.665507 7.94845,-0.657789 10.71444,0.01525 4.7124,1.146662 8.82969,4.056668 12.63263,8.928451 l 2.44612,3.133619 0.0761,-16.842097 0.0761,-16.842097 h 7.80924 7.80923 v 38.468702 38.468708 h -7.81165 -7.81165 v -5.77221 -5.772221 l -2.57932,3.320231 c -4.97585,6.40517 -9.67544,9.07509 -16.72873,9.50388 -1.29703,0.0788 -3.21242,0.0274 -4.25644,-0.11425 z m 13.01162,-10.33564 c 4.84582,-1.013849 8.25696,-4.66679 9.87967,-10.580016 0.76168,-2.775586 0.74716,-12.562897 -0.0227,-15.328525 -1.28582,-4.618918 -4.32238,-8.42502 -7.76877,-9.737596 -2.15571,-0.821013 -6.42836,-1.105658 -8.66935,-0.577558 -5.08261,1.19775 -8.50772,5.081801 -9.87616,11.199492 -0.71719,3.206214 -0.71965,10.571506 -0.005,13.707239 1.06807,4.683742 3.63982,8.62144 6.62558,10.144662 2.74539,1.400592 6.56779,1.856152 9.83635,1.172302 z"
       id="path8"
       transform="scale(0.26409521)" /><path
       style="fill:#2010ed;stroke:#020202;stroke-width:0.294779;fill-opacity:1"
       d="m 694.5923,111.12527 c -8.32285,-0.69868 -14.5567,-3.16287 -19.32807,-7.64021 -4.92503,-4.621542 -7.14855,-9.506068 -7.94719,-17.45802 -0.72976,-7.266162 0.92588,-15.075356 4.21995,-19.904337 4.15719,-6.094284 9.96283,-9.748301 17.95185,-11.298733 18.57732,-3.605304 33.11302,4.675718 36.39009,20.731512 0.25851,1.266551 0.55412,4.151704 0.65692,6.411451 l 0.1869,4.10863 h -22.01707 -22.01707 l 0.18737,1.547592 c 0.93634,7.733789 4.5173,12.043981 11.62411,13.991275 2.88113,0.78943 10.56559,0.69468 14.73897,-0.18175 3.67479,-0.77172 9.13134,-2.546791 12.23066,-3.978767 l 2.227,-1.028936 -0.0804,5.216263 -0.0804,5.21627 -2.06346,0.68946 c -8.23892,2.75287 -19.25072,4.21877 -26.8801,3.5783 z m 15.99105,-35.588068 c -0.27822,-3.196036 -0.85418,-5.020032 -2.24087,-7.096622 -2.16784,-3.246364 -5.38217,-5.010022 -9.62944,-5.283545 -6.24417,-0.402125 -11.41377,2.354434 -13.90477,7.414375 -0.88867,1.805143 -1.78795,5.09707 -1.79945,6.587079 l -0.005,0.663253 h 13.88926 13.88926 z"
       id="path9"
       transform="scale(0.26409521)" /><path
       style="fill:#2010ed;fill-opacity:1;stroke:#020202;stroke-width:0.294779"
       d="M 25.645801,72.951846 V 33.266611 l 19.9713,0.119302 c 21.334085,0.127442 21.860708,0.160122 27.930341,1.733215 7.786628,2.018095 12.921607,6.679619 14.753929,13.393587 0.262251,0.960938 0.544829,3.272643 0.627951,5.137122 0.178542,4.004783 -0.287758,6.674376 -1.67269,9.576237 -0.981017,2.055537 -3.535389,5.042637 -5.182781,6.060781 -0.555243,0.343161 -1.009536,0.712826 -1.009536,0.821479 0,0.10865 0.573399,0.501735 1.274219,0.87352 2.57271,1.364819 5.608928,4.396135 7.203522,7.19189 3.454693,6.057014 3.554785,15.95767 0.22538,22.293546 -3.038391,5.78206 -8.609355,9.33934 -17.711781,11.30965 -2.818992,0.6102 -3.752862,0.63848 -24.669878,0.74717 l -21.739976,0.11297 z m 33.899623,37.003244 c 10.453149,-0.28148 12.94366,-0.61213 17.708267,-2.35099 8.530875,-3.11339 12.838798,-9.955102 12.256287,-19.465081 C 88.964754,79.237756 84.529015,73.669737 76.126761,71.33956 74.7892,70.968618 73.694832,70.583389 73.694832,70.483494 c 0,-0.09989 0.829066,-0.498867 1.84237,-0.886608 3.319339,-1.270136 5.302777,-2.419192 6.854654,-3.97107 3.467218,-3.467218 4.756227,-9.038357 3.549948,-15.343 C 84.459052,42.533177 79.064962,38.443331 67.799245,36.526976 66.607564,36.324265 58.778638,36.146833 47.090997,36.057651 L 28.298815,35.914259 v 37.166603 37.166608 l 10.833141,-0.0172 c 5.958227,-0.009 15.144287,-0.13329 20.413468,-0.27517 z"
       id="path10"
       transform="scale(0.26409521)" /><path
       style="fill:#2010ed;fill-opacity:1;stroke:#020202;stroke-width:0.20844"
       d="m 109.63968,104.53289 v -8.233397 h 8.85872 8.85872 V 73.058381 c 0,-14.491106 -0.0743,-23.241111 -0.19743,-23.241111 -0.10859,0 -4.11369,0.797285 -8.90023,1.771744 -4.78654,0.974459 -8.82482,1.771744 -8.97395,1.771744 -0.21793,0 -0.27089,-1.585329 -0.26984,-8.077068 l 0.001,-8.077068 10.05594,-2.041796 10.05595,-2.041796 9.95303,0.0095 9.95303,0.0095 v 31.57873 31.57873 h 8.85872 8.85872 v 8.2334 8.2334 h -28.55634 -28.55635 z m 54.35426,0.0521 0.0555,-5.575781 h -8.86212 -8.86213 V 67.534709 36.0602 h -9.04808 -9.04808 l -8.16733,1.667523 c -4.49204,0.917138 -8.20566,1.667524 -8.25248,1.667524 -0.0468,0 -0.0851,2.448789 -0.0851,5.441753 0,5.098134 0.023,5.432723 0.36477,5.29876 0.20062,-0.07864 4.25739,-0.921085 9.01505,-1.872089 l 8.65028,-1.729098 0.1317,2.735661 c 0.0724,1.504613 0.14279,13.311409 0.15633,26.237323 l 0.0246,23.501662 h -8.85872 -8.85872 v 5.628711 5.62871 l 25.79451,-0.0529 25.7945,-0.0529 z"
       id="path11"
       transform="scale(0.26409521)" /><path
       style="fill:#2010ed;fill-opacity:1;stroke:#020202;stroke-width:0.20844"
       d="m 205.62651,114.08086 c -0.45856,-0.0409 -1.84259,-0.2626 -3.07562,-0.49258 -14.99794,-2.79731 -24.07046,-14.67702 -25.81172,-33.798316 -0.36514,-4.009713 -0.13899,-13.500478 0.40521,-17.005352 1.51103,-9.731658 4.51246,-16.497448 9.71443,-21.898137 2.04262,-2.120655 3.69052,-3.455284 5.82307,-4.716079 4.86177,-2.874359 10.56063,-4.284176 17.28045,-4.274936 13.24396,0.01821 22.92518,5.790364 28.56739,17.032496 5.6934,11.344154 6.36709,31.700983 1.48186,44.777464 -1.81586,4.860579 -4.099,8.48756 -7.48587,11.89199 -4.87992,4.90521 -10.4314,7.49532 -18.03501,8.41445 -1.64068,0.19833 -6.95243,0.23967 -8.86419,0.069 z m 9.2802,-2.86537 c 10.80212,-1.43828 18.41111,-7.58271 22.4293,-18.112173 3.98456,-10.441314 4.2797,-27.034434 0.67702,-38.062635 -3.62835,-11.106759 -10.74065,-17.76546 -21.17246,-19.822129 -1.49041,-0.293839 -3.44854,-0.482472 -5.7946,-0.558213 -10.8959,-0.351764 -18.8092,3.142623 -24.653,10.886373 -1.33825,1.773332 -3.76737,6.613069 -4.602,9.168908 -1.57584,4.825599 -2.30239,9.652002 -2.46849,16.397853 -0.37426,15.20016 2.977,26.0651 10.18211,33.010846 4.07119,3.92463 9.61188,6.47157 15.5612,7.15316 2.52112,0.28883 7.43872,0.25785 9.84092,-0.062 z"
       id="path12"
       transform="scale(0.26409521)" /><path
       style="fill:#2010ed;fill-opacity:1;stroke:#020202;stroke-width:0.20844"
       d="m 206.14564,100.1889 c -2.36885,-0.836355 -4.29454,-2.348463 -5.69041,-4.468269 -1.38851,-2.108638 -2.43989,-5.397862 -3.20081,-10.013636 -0.43329,-2.628374 -0.63232,-17.196176 -0.30045,-21.990863 0.35301,-5.100096 1.41784,-9.543887 3.00253,-12.530309 2.81595,-5.306784 9.56746,-7.272405 15.33611,-4.464927 4.46195,2.171531 6.91504,7.945074 7.55638,17.784562 0.31071,4.766915 0.11633,17.790838 -0.30965,20.74669 -1.06522,7.391568 -3.29582,11.980581 -6.82142,14.033726 -2.39905,1.397086 -6.95546,1.826926 -9.57228,0.903026 z m 7.76202,-3.01229 c 2.73297,-1.345439 4.33586,-4.052036 5.3542,-9.040911 1.67875,-8.224314 1.51683,-24.534951 -0.31363,-31.591805 -1.57119,-6.057287 -4.4824,-8.601773 -9.54779,-8.345045 -2.54388,0.128931 -3.96358,0.687708 -5.46053,2.1492 -1.97749,1.930648 -3.20968,5.16666 -3.93512,10.334571 -1.06453,7.583446 -0.87139,20.537171 0.4056,27.203549 0.87015,4.542551 2.52817,7.614505 4.84143,8.970168 1.55494,0.911252 2.48242,1.108428 4.96477,1.05547 2.12601,-0.04536 2.40113,-0.100158 3.69107,-0.735197 z"
       id="path13"
       transform="scale(0.26409521)" /><path
       style="fill:#2010ed;fill-opacity:1;stroke:#020202;stroke-width:0.20844"
       d="m 258.04929,104.53289 v -8.233397 h 8.85872 8.85872 V 73.058381 c 0,-12.782611 -0.0412,-23.241111 -0.0914,-23.241111 -0.0503,0 -4.00379,0.797285 -8.78557,1.771744 -4.78177,0.974459 -8.82085,1.771744 -8.97572,1.771744 -0.23166,0 -0.28151,-1.432299 -0.28114,-8.077068 l 4.4e-4,-8.077068 9.95259,-2.034656 9.95258,-2.034656 10.05726,0.0024 10.05725,0.0024 v 31.57873 31.57873 h 8.85872 8.85872 v 8.2334 8.2334 h -28.66057 -28.66056 z m 54.6114,0.10422 v -5.627891 h -8.85872 -8.85872 V 67.534709 36.0602 h -9.07756 -9.07756 l -8.13417,1.667523 c -4.4738,0.917138 -8.17415,1.667524 -8.223,1.667524 -0.0489,0 -0.0888,2.448789 -0.0888,5.441753 0,5.097609 0.0231,5.432797 0.36477,5.300139 0.20062,-0.07789 4.1903,-0.908657 8.86596,-1.846155 6.71901,-1.347202 8.53632,-1.647825 8.66876,-1.433999 0.265,0.427866 0.44262,14.006168 0.44296,33.861583 l 3.1e-4,18.290651 h -8.85872 -8.85872 v 5.627891 5.62789 h 25.84661 25.84662 z"
       id="path14"
       transform="scale(0.26409521)" /><path
       style="fill:#2010ed;fill-opacity:1;stroke:#020202;stroke-width:0.20844"
       d="m 353.51502,113.99825 c -3.65174,-0.46967 -7.78408,-1.68002 -10.64518,-3.11793 -6.76952,-3.4022 -12.26489,-10.16952 -15.05627,-18.541196 -3.1592,-9.474778 -3.67894,-23.207521 -1.2827,-33.891589 2.66531,-11.883739 9.06255,-20.245576 18.46291,-24.132867 5.98321,-2.474214 14.26639,-3.118703 21.44455,-1.668537 11.46423,2.316057 19.77356,10.63595 23.31043,23.340062 1.55988,5.602963 1.99176,9.299025 1.99487,17.072188 0.003,7.891187 -0.51905,12.151883 -2.17759,17.767084 -3.93672,13.328195 -12.94546,21.383825 -25.83284,23.099745 -2.36608,0.31504 -8.02228,0.35547 -10.21818,0.073 z m 11.55915,-2.99898 c 11.71592,-2.17421 19.37002,-10.15052 22.50683,-23.454277 2.02653,-8.594836 2.01674,-20.394304 -0.0241,-29.077444 -2.31009,-9.828609 -7.52162,-17.17049 -14.76112,-20.795123 -3.69423,-1.849612 -7.80298,-2.822382 -12.71486,-3.010322 -9.55713,-0.365678 -16.76862,2.131692 -22.31237,7.72687 -5.11753,5.164993 -7.95876,11.595515 -9.40649,21.289587 -0.30103,2.015675 -0.37355,3.836711 -0.37355,9.37982 0,7.402294 0.16963,9.306156 1.26999,14.253822 2.57909,11.596598 9.08323,19.565567 18.46263,22.620707 1.8954,0.61738 4.62955,1.20009 6.83611,1.45692 1.73041,0.20142 8.72719,-0.0584 10.51695,-0.39056 z"
       id="path15"
       transform="scale(0.26409521)" /><path
       style="fill:#2010ed;fill-opacity:1;stroke:#020202;stroke-width:0.20844"
       d="m 354.76085,100.20237 c -2.81053,-0.958308 -5.24608,-3.13516 -6.55687,-5.860398 -0.82351,-1.712153 -1.80959,-5.259884 -2.32715,-8.372655 -0.44956,-2.703798 -0.65768,-19.245024 -0.29226,-23.228738 0.59749,-6.513773 2.38036,-11.567728 5.01035,-14.203004 4.69732,-4.706768 13.50407,-3.920723 17.07009,1.523589 1.59677,2.43781 2.85493,6.421615 3.506,11.101325 0.44387,3.190434 0.51088,19.835023 0.0928,23.047457 -0.5408,4.155196 -1.50851,7.942263 -2.60426,10.191553 -0.86675,1.779218 -3.08363,4.134285 -4.70534,4.998652 -2.48751,1.325829 -6.60416,1.685049 -9.19333,0.802219 z m 7.5546,-2.903336 c 1.31925,-0.612892 2.75045,-1.96272 3.57768,-3.374285 1.34782,-2.299892 2.38444,-6.91333 2.84785,-12.674359 0.35088,-4.362036 0.15589,-16.522966 -0.32018,-19.968895 -1.30342,-9.434541 -4.12483,-13.139178 -9.99911,-13.129275 -7.3607,0.01241 -10.13953,5.983079 -10.47602,22.509096 -0.2133,10.475918 0.72022,18.361377 2.65319,22.411558 0.69725,1.460943 2.21835,3.269011 3.20382,3.808224 1.66493,0.910995 2.46102,1.076489 4.92335,1.023478 2.09261,-0.04505 2.54851,-0.121963 3.58942,-0.605542 z"
       id="path16"
       transform="scale(0.26409521)" /><path
       style="fill:#2010ed;fill-opacity:1;stroke:#020202;stroke-width:0.20844"
       d="m 474.09783,113.99893 c -8.1361,-0.83427 -14.97904,-3.15443 -20.75867,-7.03843 -9.22044,-6.19626 -14.60895,-15.251122 -16.2677,-27.336244 -0.39453,-2.874454 -0.34276,-10.533407 0.0924,-13.6768 2.27089,-16.401969 12.82554,-28.256678 28.84437,-32.397261 5.38589,-1.392155 13.24455,-1.99263 19.24111,-1.470201 5.94703,0.518115 12.66183,2.321416 17.80486,4.781601 l 2.62231,1.254393 v 9.614871 c 0,7.637076 -0.0536,9.58242 -0.26055,9.45711 -0.14331,-0.08677 -1.24543,-0.805689 -2.44918,-1.597603 -4.44796,-2.926201 -9.45943,-5.06066 -14.06973,-5.992498 -2.65235,-0.536095 -8.51546,-0.768562 -10.73468,-0.42562 -5.0018,0.772937 -8.55217,2.453198 -11.48818,5.436939 -4.15899,4.226616 -6.12381,9.560922 -6.37324,17.302772 -0.27474,8.527551 1.85147,15.059448 6.38586,19.617918 3.80763,3.827846 8.68317,5.600516 15.40917,5.60254 7.2628,0.0022 13.93647,-2.077795 20.55814,-6.407343 1.14642,-0.749583 2.29545,-1.501143 2.5534,-1.670132 l 0.46899,-0.307251 v 9.624071 9.624068 l -2.5534,1.23423 c -4.81768,2.32872 -11.71584,4.22833 -17.33676,4.77419 -2.59621,0.25213 -9.20724,0.24912 -11.68857,-0.005 z m 13.96551,-2.98937 c 2.56428,-0.40919 5.91387,-1.20075 8.12918,-1.92103 2.01884,-0.65641 6.15037,-2.31712 6.51276,-2.61787 0.19892,-0.16508 0.26155,-1.68353 0.26155,-6.34054 0,-3.36791 -0.0593,-6.123472 -0.13176,-6.123472 -0.0725,0 -1.50289,0.684971 -3.17871,1.522159 -3.42003,1.708528 -6.6229,2.842772 -10.21042,3.615846 -3.37461,0.727197 -8.75323,0.902477 -12.01306,0.391487 -6.84761,-1.073385 -11.50795,-3.958231 -15.40869,-9.53828 -3.17636,-4.543822 -4.68572,-10.803435 -4.43638,-18.398562 0.20794,-6.334366 1.26093,-10.169041 4.12109,-15.007713 2.5663,-4.341536 7.2731,-7.848183 12.58235,-9.374068 3.39605,-0.976029 11.24638,-1.08336 15.43961,-0.211093 2.87576,0.598208 6.7588,2.011334 10.05725,3.660055 l 3.17872,1.588872 v -6.196089 c 0,-4.710065 -0.0625,-6.244586 -0.26055,-6.3983 -0.45763,-0.355166 -4.77697,-2.081139 -6.82642,-2.727783 -2.41213,-0.761075 -6.09129,-1.581335 -8.7545,-1.951793 -3.07055,-0.42712 -11.55427,-0.362316 -14.89223,0.113755 -9.84337,1.403892 -17.26567,5.022178 -23.29157,11.354373 -5.09285,5.351713 -8.08527,12.149232 -9.14455,20.772535 -0.31875,2.59491 -0.31833,9.37809 7.4e-4,11.881106 0.82348,6.459845 2.71688,11.802766 5.87237,16.571016 1.81704,2.74572 6.24521,7.154509 9.04275,9.003179 5.58644,3.69163 11.92257,5.82282 19.69762,6.62538 2.70768,0.27949 11.20803,0.097 13.65285,-0.29317 z"
       id="path17"
       transform="scale(0.26409521)" /><path
       style="fill:#2010ed;fill-opacity:1;stroke:#020202;stroke-width:0.20844"
       d="m 542.36208,113.99553 c -5.90656,-0.66408 -11.23683,-2.49024 -15.4119,-5.28016 -6.8377,-4.56917 -10.90875,-11.296387 -12.19696,-20.154925 -0.42444,-2.918719 -0.42444,-8.908885 0,-11.827604 1.68126,-11.561363 8.32499,-19.759944 19.07461,-23.538709 7.78798,-2.73767 19.37851,-2.836882 27.34347,-0.234055 10.25156,3.350055 17.18607,11.114743 19.33236,21.646769 1.28119,6.286902 0.90144,14.134279 -0.95496,19.734153 -3.7159,11.209081 -13.12368,18.218631 -26.39161,19.663891 -2.33152,0.25397 -8.5004,0.24862 -10.79501,-0.009 z m 10.58657,-2.70069 c 12.50634,-1.36429 21.05536,-7.90152 24.20309,-18.507538 1.01194,-3.409637 1.34016,-6.49153 1.20793,-11.342216 -0.12359,-4.533951 -0.46164,-6.763558 -1.49394,-9.85319 -2.97882,-8.915521 -10.13786,-14.959007 -20.10778,-16.9745 -8.5349,-1.725392 -18.5623,-0.766435 -25.17573,2.407644 -3.54693,1.702334 -7.4158,4.941793 -9.56929,8.012518 -2.00608,2.86051 -3.48037,6.457102 -4.29071,10.46732 -0.41176,2.037691 -0.47439,2.980572 -0.47439,7.141765 0,4.161192 0.0626,5.104073 0.47439,7.141764 2.51192,12.431023 11.21364,19.959083 24.8483,21.496843 2.29215,0.25852 8.04752,0.26383 10.37813,0.01 z"
       id="path18"
       transform="scale(0.26409521)" /><path
       style="fill:#2010ed;fill-opacity:1;stroke:#020202;stroke-width:0.20844"
       d="m 545.59291,100.96138 c -5.33648,-0.82006 -8.98891,-4.323453 -10.8822,-10.438123 -0.56021,-1.809304 -0.56728,-1.904929 -0.57461,-7.772394 -0.007,-5.618307 0.0188,-6.028883 0.47609,-7.568899 1.737,-5.849793 4.95826,-9.38065 9.57374,-10.493899 1.71871,-0.414551 5.12198,-0.458218 6.82643,-0.08759 6.28121,1.365833 9.9288,6.566115 10.57454,15.075891 0.61873,8.153822 -0.95432,14.244471 -4.61774,17.879335 -1.49875,1.487075 -3.25312,2.521009 -5.08897,2.999189 -1.22415,0.31885 -5.18935,0.57521 -6.28728,0.40649 z m 4.92567,-2.877689 c 4.03169,-0.85456 6.77916,-3.974743 7.90327,-8.975394 0.93022,-4.138148 0.71987,-10.928517 -0.44968,-14.516127 -1.8277,-5.606473 -6.03974,-8.282592 -11.82592,-7.513593 -5.46955,0.726918 -8.58521,4.703771 -9.39836,11.996123 -0.71682,6.42848 0.44137,12.505549 3.01208,15.804486 2.21479,2.8422 6.47762,4.111905 10.75861,3.204505 z"
       id="path19"
       transform="scale(0.26409521)" /><path
       style="fill:#000000;fill-opacity:1;stroke:#020202;stroke-width:0.20844"
       d="m 695.87848,110.97171 c -7.28372,-0.53108 -12.76565,-2.16553 -17.12353,-5.10541 -7.95259,-5.36494 -11.62628,-13.309679 -11.26703,-24.36608 0.26577,-8.179053 2.52888,-14.00059 7.33807,-18.876119 3.06195,-3.104183 6.26458,-5.063464 10.52462,-6.438657 8.88157,-2.867084 18.7826,-2.514104 26.00677,0.927163 5.24839,2.500099 9.05592,6.107295 11.55503,10.94707 2.33209,4.51633 3.0531,7.669246 3.41916,14.951736 l 0.14407,2.866057 h -22.02079 c -18.74069,0 -22.02078,0.04349 -22.02078,0.291948 0,0.16057 0.18566,1.37796 0.41258,2.705309 1.17286,6.860501 4.36824,10.621298 10.8432,12.761893 1.75811,0.58122 1.81347,0.58575 7.1912,0.58824 4.27317,0.002 5.83829,-0.0746 7.39964,-0.36183 3.69215,-0.67934 9.40518,-2.464551 13.12362,-4.100877 1.06593,-0.46907 1.97015,-0.820755 2.00939,-0.781521 0.0392,0.03924 0.0122,2.247362 -0.0601,4.906948 l -0.13148,4.83561 -1.9539,0.62589 c -4.48702,1.43732 -10.21001,2.63707 -15.28034,3.20332 -2.93137,0.32737 -8.3104,0.55048 -10.10936,0.41931 z m 15.02207,-34.630391 c -0.37745,-4.677174 -1.46845,-7.466326 -3.84547,-9.830963 -2.50259,-2.489559 -5.36434,-3.561337 -9.50908,-3.561337 -4.3449,0 -7.58519,1.240792 -10.33952,3.959278 -1.23105,1.215029 -1.77951,1.960066 -2.45589,3.336138 -1.06777,2.172364 -1.89964,5.115423 -1.89964,6.72074 v 1.199998 h 14.0984 14.09839 z"
       id="path21"
       transform="scale(0.26409521)" /><path
       style="fill:#2010ed;fill-opacity:1;stroke:#020202;stroke-width:0.294779"
       d="m 695.05295,114.0401 c -17.39423,-0.94869 -28.64162,-10.68127 -30.60479,-26.482908 -0.88762,-7.144487 0.15051,-14.196246 2.93637,-19.946005 4.18587,-8.639246 11.83312,-14.032218 22.54648,-15.900165 4.42362,-0.771287 11.74539,-0.705523 15.74786,0.141447 5.97313,1.263981 10.44019,3.516266 14.44371,7.282484 2.72327,2.561858 4.48119,4.888178 5.99043,7.927344 2.36042,4.753192 3.13251,8.449962 3.37073,16.139168 l 0.18037,5.821892 h -21.70892 -21.70892 l 0.007,0.663253 c 0.0109,1.02967 1.28445,3.885407 2.31063,5.181065 1.17677,1.485797 3.35913,2.889401 5.71566,3.676078 2.71015,0.904728 10.27862,0.878404 14.66472,-0.051 4.47839,-0.948965 8.72947,-2.455057 13.26507,-4.699619 2.18874,-1.083155 4.08103,-2.014263 4.2051,-2.06913 0.12407,-0.05486 0.19039,3.792006 0.14739,8.548596 l -0.0782,8.64836 -4.23104,1.40726 c -8.7919,2.92422 -18.17172,4.20426 -27.19966,3.71188 z m 13.70137,-3.23916 c 3.97782,-0.56091 10.18283,-2.01044 13.45503,-3.14318 l 1.62129,-0.56124 0.0803,-5.53331 c 0.0636,-4.384091 0.002,-5.50292 -0.29478,-5.386968 -0.20631,0.08049 -1.63528,0.683988 -3.17551,1.341107 -3.47971,1.48458 -8.97075,3.158491 -12.33563,3.760441 -3.20825,0.57393 -10.79142,0.6568 -13.01539,0.14224 -2.78984,-0.6455 -5.86939,-2.298769 -7.66006,-4.112354 -2.30432,-2.33381 -3.62096,-5.333077 -4.25136,-9.684521 l -0.1815,-1.252812 h 22.01057 22.01057 l -0.19463,-4.347995 c -0.46766,-10.447323 -3.4407,-17.125957 -9.91937,-22.28285 -5.8086,-4.623533 -13.70942,-6.646546 -22.81093,-5.840765 -11.90619,1.054087 -19.85537,5.859779 -24.31128,14.697423 -2.29339,4.548603 -3.35045,11.294251 -2.75684,17.592871 1.80786,19.182893 16.93957,28.107523 41.7295,24.611913 z"
       id="path22"
       transform="scale(0.26409521)" /><path
       style="fill:#2010ed;fill-opacity:1;stroke:#020202;stroke-width:0.10422"
       d="m 683.20802,76.992695 c 0.20535,-1.875077 0.97686,-4.595719 1.78065,-6.279269 1.24966,-2.617401 3.6463,-4.943238 6.29355,-6.10762 1.97551,-0.868922 3.84669,-1.239068 6.26378,-1.239068 2.58683,0 4.28902,0.357127 6.20111,1.301016 4.18738,2.067074 6.61798,6.394047 6.61798,11.781368 v 1.19495 h -13.6142 -13.6142 z m 24.19393,-2.693842 c -0.3941,-3.483381 -2.90139,-6.615602 -6.15613,-7.690512 -2.53704,-0.837884 -5.96578,-0.680245 -8.57099,0.394058 -1.53761,0.63406 -3.25936,2.011646 -4.2474,3.398367 -0.76574,1.074735 -1.5985,2.941256 -1.87156,4.194864 l -0.0738,0.338716 h 10.49587 10.49588 z"
       id="path23"
       transform="scale(0.26409521)" /><path
       style="fill:#2010ed;fill-opacity:1;stroke:#020202;stroke-width:0.14739"
       d="m 612.03558,114.20982 c -9.00487,-0.55898 -16.54333,-6.06682 -20.87643,-15.25299 -1.35933,-2.881777 -2.39213,-6.531605 -2.95687,-10.449337 -0.25946,-1.799886 -0.25937,-9.844835 1.3e-4,-11.643784 1.35231,-9.374905 5.36155,-16.717523 11.65546,-21.346101 3.56418,-2.621112 7.36384,-4.007642 12.06716,-4.403418 7.20426,-0.606226 13.98043,1.719203 18.93958,6.499635 l 0.84749,0.816948 V 44.175438 29.920102 h 10.83314 10.83314 V 71.336597 112.75309 H 642.54524 631.7121 v -2.89195 -2.89195 l -1.05116,0.99161 c -3.85428,3.63593 -9.05134,5.91102 -14.15791,6.19782 -0.75475,0.0424 -1.67073,0.096 -2.03552,0.11903 -0.36479,0.0231 -1.45916,-0.007 -2.43193,-0.0678 z m 3.79937,-2.78486 c 7.10682,-0.51244 11.60383,-3.17307 16.77536,-9.92506 l 1.90219,-2.483504 v 5.543114 5.54311 l 7.99589,-0.0381 7.99589,-0.0381 0.0371,-38.654205 0.0371,-38.654209 -7.99617,0.03812 -7.99616,0.03812 -0.096,0.810643 c -0.0528,0.445854 -0.10253,7.930831 -0.11054,16.633282 l -0.0146,15.82264 -1.8487,-2.373348 c -3.27815,-4.208442 -5.85313,-6.414921 -9.38233,-8.039617 -2.7679,-1.274225 -5.35917,-1.767096 -9.25613,-1.760553 -3.11401,0.0052 -4.57142,0.219072 -7.01635,1.029508 -7.15756,2.372556 -13.05514,9.544331 -15.13881,18.409602 -0.65221,2.774892 -0.85683,4.542258 -0.9428,8.143039 -0.14843,6.21669 0.61125,10.85064 2.52938,15.428924 2.47267,5.901884 6.83623,10.633024 11.83207,12.828764 2.56983,1.12948 4.60342,1.57289 8.36803,1.8246 0.16213,0.0108 1.2086,-0.0462 2.32548,-0.12672 z"
       id="path28"
       transform="scale(0.26409521)" /><path
       style="fill:#2010ed;fill-opacity:1;stroke:#020202;stroke-width:0.14739"
       d="m 617.71008,100.53123 c -2.59258,-0.577982 -4.01235,-1.334258 -5.6745,-3.022667 -2.445,-2.483614 -4.07303,-6.243115 -4.50976,-10.414093 -0.23435,-2.238226 -0.0984,-8.940492 0.21543,-10.623289 1.07334,-5.75467 4.18802,-9.795574 8.7606,-11.365771 1.1019,-0.378385 1.56223,-0.450342 3.2779,-0.512387 2.04002,-0.07377 3.8272,0.08702 5.39013,0.484951 3.84509,0.978987 7.34861,5.106026 8.59133,10.120312 0.60364,2.435672 0.75315,9.223359 0.2899,13.161817 -0.18873,1.604561 -0.83996,3.711794 -1.6398,5.306028 -1.79775,3.583249 -4.22895,5.718427 -7.65179,6.720099 -1.57626,0.46128 -5.28824,0.53763 -7.04944,0.145 z m 6.11667,-2.735941 c 3.97594,-1.05518 6.35559,-4.070556 7.45305,-9.444131 0.3958,-1.937991 0.55192,-6.986902 0.2899,-9.375346 -0.7292,-6.646823 -3.55994,-10.611658 -8.24913,-11.554009 -1.79253,-0.360231 -4.37389,-0.235999 -6.00216,0.288863 -3.67577,1.18486 -6.01672,4.531099 -6.91575,9.885596 -0.31803,1.894167 -0.4316,6.123264 -0.22225,8.276069 0.81751,8.406677 4.52708,12.475715 11.14072,12.220273 0.8917,-0.03444 2.01923,-0.168232 2.50562,-0.297315 z"
       id="path29"
       transform="scale(0.26409521)" /><path
       style="fill:#2010ed;fill-opacity:1;stroke:#020202;stroke-width:0.10422"
       d="m 45.544241,56.233703 v -9.550529 l 0.911927,0.05383 c 0.50156,0.02961 3.37413,0.07933 6.383489,0.110507 5.699897,0.05904 8.275001,0.171797 9.56642,0.418887 0.432166,0.08269 1.200736,0.353174 1.773228,0.624062 0.932402,0.441189 1.103024,0.572489 2.208982,1.699879 1.326987,1.352703 1.835544,2.118593 2.261372,3.405647 0.241953,0.731295 0.281279,1.045129 0.319996,2.553634 0.0325,1.266117 7.36e-4,1.971392 -0.120378,2.673214 -0.634687,3.677814 -2.798559,6.009471 -6.459863,6.960758 -1.794377,0.466218 -2.295833,0.494493 -9.732143,0.548745 l -7.11303,0.0519 z m 14.240288,6.604244 c 2.212161,-0.24667 3.737017,-0.856793 4.780853,-1.912907 1.186035,-1.199984 1.623957,-2.466923 1.623957,-4.698226 0,-2.242023 -0.441667,-3.510095 -1.634073,-4.691607 -1.024397,-1.015037 -2.309034,-1.579301 -4.263863,-1.87286 -0.824606,-0.123832 -2.179142,-0.156637 -6.487709,-0.157123 l -5.445507,-6.15e-4 v 6.722205 6.722205 h 5.215119 c 2.998641,0 5.638474,-0.04721 6.211223,-0.111072 z"
       id="path30"
       transform="scale(0.26409521)" /><path
       style="fill:#2010ed;fill-opacity:1;stroke:#020202;stroke-width:0.10422"
       d="M 45.544241,87.921061 V 76.497649 l 3.465322,0.0053 c 5.91843,0.009 12.628264,0.178857 13.869365,0.351046 2.64291,0.366674 4.472048,1.182884 6.106786,2.725013 1.737235,1.63882 2.690241,3.474502 3.026415,5.829487 0.263394,1.845146 0.08125,5.107617 -0.369473,6.617811 -1.117016,3.74268 -4.938935,6.542116 -9.683729,7.093027 -0.653638,0.07589 -3.907867,0.140423 -8.728444,0.173083 l -7.686242,0.05207 z m 15.655002,8.471403 c 3.642988,-0.392277 6.147338,-1.79701 7.267581,-4.076512 0.715725,-1.456378 0.870895,-2.234331 0.87886,-4.406188 0.008,-2.193062 -0.130975,-2.982024 -0.752917,-4.273029 -0.905395,-1.879382 -2.293001,-2.9905 -4.663315,-3.734121 -1.818401,-0.570473 -2.483594,-0.618272 -9.291996,-0.667696 l -6.279269,-0.04558 v 8.659299 8.659299 h 5.884356 c 3.590367,0 6.302404,-0.04501 6.9567,-0.115469 z"
       id="path31"
       transform="scale(0.26409521)" /><path
       style="fill:#ffffff;fill-opacity:1;stroke:#020202;stroke-width:0.294779"
       d="M 28.593595,73.125271 V 36.319905 l 15.991778,0.127745 c 18.861441,0.150668 23.427755,0.391435 27.340783,1.44159 9.564716,2.566923 13.84414,7.756688 13.846772,16.792325 0.0022,7.492271 -2.774215,11.347247 -10.388569,14.42434 -1.577756,0.637595 -2.868645,1.263424 -2.868645,1.390724 0,0.127304 1.160694,0.580108 2.579319,1.006235 4.243741,1.274738 6.685481,2.593038 8.894312,4.80205 3.832933,3.833248 4.863043,6.614391 4.874565,13.160612 0.0082,4.645504 -0.321359,6.445438 -1.671428,9.129286 -2.342387,4.656518 -7.306556,8.078368 -14.118373,9.731928 -4.160834,1.01004 -9.323004,1.27223 -28.636126,1.45442 l -15.844388,0.14948 z m 34.028364,26.186807 c 4.083213,-0.5764 7.444401,-2.870396 8.964455,-6.118195 0.711753,-1.520761 0.779331,-1.983912 0.780563,-5.349644 0.0012,-3.409494 -0.05821,-3.805999 -0.795892,-5.308009 -1.538188,-3.131933 -4.328991,-5.216615 -7.886856,-5.89135 -0.861443,-0.16337 -5.3287,-0.297034 -9.927236,-0.297034 h -8.360977 v 11.758249 11.758246 l 7.590568,-0.131805 c 4.174812,-0.07249 8.51073,-0.261699 9.635375,-0.420458 z M 61.668065,65.698836 c 3.33865,-0.709011 5.643353,-2.378159 6.831953,-4.947944 0.852717,-1.843598 0.910562,-7.265925 0.09499,-8.904006 -0.755906,-1.518232 -3.079542,-3.773866 -4.588877,-4.45458 -1.340957,-0.604774 -1.098917,-0.588547 -13.96734,-0.936388 l -4.642775,-0.125497 v 9.850074 9.850074 h 7.354974 c 4.327633,0 7.997941,-0.136545 8.917075,-0.331733 z"
       id="path32"
       transform="scale(0.26409521)" /><path
       style="fill:#ffffff;fill-opacity:1;stroke:#020202;stroke-width:0.294779"
       d="m 112.6726,104.72036 0.0805,-5.232337 8.76969,-0.07808 8.76968,-0.07808 V 72.806107 46.280354 l -0.81064,0.01192 c -0.44585,0.0066 -4.55803,0.773276 -9.13816,1.703828 l -8.32752,1.691911 v -4.940784 c 0,-4.880405 0.008,-4.942716 0.66326,-5.098907 0.36479,-0.08697 4.30432,-0.8854 8.75451,-1.774292 l 8.09125,-1.616169 h 8.1953 8.19531 V 67.794859 99.33186 l 8.76968,0.07808 8.76969,0.07808 0.0805,5.23234 0.0805,5.23233 H 138.10411 112.5921 Z"
       id="path33"
       transform="scale(0.26409521)" /><path
       style="fill:#ffffff;fill-opacity:1;stroke:#020202;stroke-width:0.294779"
       d="m 204.74922,110.82478 c -12.87438,-2.01939 -21.21647,-10.875846 -24.0437,-25.526214 -2.44261,-12.657329 -0.59522,-28.251214 4.35879,-36.792663 3.31271,-5.711604 8.56631,-9.989938 14.6668,-11.944099 3.62508,-1.161218 5.77394,-1.478179 10.03946,-1.480837 5.5447,-0.0035 10.13098,1.004211 14.41107,3.166307 7.7017,3.890527 12.94591,12.144306 15.03057,23.656385 0.75687,4.179652 0.94078,15.280313 0.33,19.918516 -2.13536,16.215625 -9.72471,25.776435 -22.71679,28.617835 -2.47738,0.54181 -9.62344,0.7695 -12.0762,0.38477 z m 9.92723,-10.59433 c 4.6833,-1.764642 7.63123,-7.724865 8.46169,-17.108139 0.39584,-4.472519 0.38617,-15.515395 -0.0177,-20.24158 -0.79106,-9.256747 -3.65377,-15.033229 -8.38282,-16.91513 -1.47137,-0.585526 -2.2916,-0.701575 -5.00831,-0.708588 -3.08526,-0.008 -3.34782,0.04038 -5.21681,0.960479 -3.47487,1.710673 -5.45469,4.652138 -6.86001,10.192074 -0.39911,1.573318 -0.8615,4.533588 -1.02754,6.578377 -0.38752,4.77225 -0.38871,16.418807 -0.002,20.495794 0.354,3.733032 1.68567,9.245314 2.73264,11.311399 1.30203,2.56945 3.87581,4.810574 6.71859,5.850224 1.83056,0.66947 6.29607,0.45409 8.60238,-0.41491 z"
       id="path34"
       transform="scale(0.26409521)" /><path
       style="fill:#ffffff;fill-opacity:1;stroke:#020202;stroke-width:0.294779"
       d="m 261.24138,104.72036 0.0805,-5.232337 8.76969,-0.07808 8.76968,-0.07808 V 72.806107 46.280354 l -0.81064,0.01192 c -0.44585,0.0066 -4.55803,0.773276 -9.13816,1.703828 l -8.32752,1.691911 v -4.940784 c 0,-4.880405 0.008,-4.942716 0.66326,-5.098907 0.36479,-0.08697 4.30432,-0.8854 8.75451,-1.774292 l 8.09125,-1.616169 h 8.19531 8.1953 v 31.537067 31.537063 l 8.91707,0.07802 8.91708,0.07802 0.0805,5.232339 0.0805,5.23233 H 286.8203 261.1609 Z"
       id="path35"
       transform="scale(0.26409521)" /><path
       style="fill:#ffffff;fill-opacity:1;stroke:#020202;stroke-width:0.294779"
       d="m 354.02997,110.9454 c -4.58179,-0.58892 -10.58804,-3.05065 -13.85463,-5.67847 -6.35038,-5.1086 -10.13847,-13.029067 -11.49664,-24.03817 -0.42213,-3.42173 -0.42427,-12.83735 -0.004,-16.229919 1.69105,-13.640845 7.20451,-22.780772 16.3819,-27.157106 4.4112,-2.103524 6.98187,-2.603099 13.39476,-2.603099 6.55047,0 9.09201,0.514061 13.70724,2.772469 7.56781,3.703219 12.30446,10.230681 14.90985,20.546894 1.20568,4.77397 1.55852,9.104831 1.3653,16.758119 -0.23032,9.122651 -1.19701,13.855321 -4.05596,19.856875 -1.83238,3.846575 -3.44664,6.112947 -6.2522,8.777967 -3.56131,3.38289 -7.44711,5.39156 -12.47052,6.44632 -2.27916,0.47856 -9.5131,0.81962 -11.6254,0.54812 z m 7.09786,-10.13526 c 2.23977,-0.42476 3.82351,-1.273482 5.49449,-2.944465 1.99604,-1.996042 2.92793,-3.852321 3.93423,-7.836838 1.20107,-4.755704 1.55957,-9.990926 1.37087,-20.018747 -0.12838,-6.822337 -0.26569,-8.811072 -0.79173,-11.466886 -1.43627,-7.251333 -3.76023,-10.950424 -7.9242,-12.613107 -2.40878,-0.961833 -7.49758,-0.963486 -9.58933,-0.0031 -4.28746,1.968469 -6.64831,5.858823 -7.99601,13.176274 -0.64849,3.521031 -0.93182,17.550896 -0.47138,23.341364 0.38325,4.819801 1.61817,10.191426 2.873,12.49696 2.63125,4.83449 7.3667,6.955875 13.10006,5.868565 z"
       id="path36"
       transform="scale(0.26409521)" /><path
       style="fill:#ffffff;fill-opacity:1;stroke:#020202;stroke-width:0.294779"
       d="m 474.88949,110.93502 c -14.80938,-1.47039 -25.9134,-8.62227 -31.39601,-20.221528 -2.40552,-5.089227 -3.436,-10.270003 -3.44373,-17.31344 -0.006,-5.193776 0.35419,-8.361209 1.40481,-12.363702 2.91284,-11.096907 11.70411,-20.123596 23.10701,-23.725771 5.48871,-1.733881 7.8887,-2.061431 15.19178,-2.073368 5.93326,-0.0097 7.19714,0.07345 10.1209,0.6658 3.58598,0.726522 8.26214,2.170806 11.07134,3.419507 l 1.7368,0.772015 -0.21416,5.52484 c -0.11778,3.038662 -0.25552,5.566385 -0.30609,5.617161 -0.0506,0.05078 -1.13371,-0.431333 -2.40698,-1.071356 -2.67809,-1.346166 -6.63873,-2.790402 -9.64879,-3.518401 -3.03416,-0.73383 -12.78852,-0.723128 -15.51165,0.01702 -8.3684,2.274525 -14.12212,8.380646 -16.5605,17.574793 -0.84334,3.179869 -1.06699,11.177005 -0.42239,15.103024 0.99412,6.054735 3.04385,10.35461 6.74358,14.146513 4.87792,4.999445 10.61725,6.981213 19.23007,6.640063 6.03842,-0.239169 10.27575,-1.307108 15.99796,-4.031983 l 3.02767,-1.441751 -0.0799,5.804694 -0.0799,5.8047 -3.35797,1.27295 c -4.44565,1.68528 -7.97849,2.59511 -12.20674,3.14368 -3.10633,0.40301 -9.1997,0.53229 -11.99716,0.25454 z"
       id="path37"
       transform="scale(0.26409521)" /><path
       style="fill:#ffffff;fill-opacity:1;stroke:#020202;stroke-width:0.294779"
       d="m 541.36223,110.66491 c -4.99205,-0.77111 -9.01074,-2.26289 -12.72624,-4.72414 -7.29593,-4.83302 -11.03495,-12.8091 -11.01353,-23.494067 0.01,-4.79306 0.57744,-8.090127 2.04768,-11.889632 1.69608,-4.383152 4.03651,-7.408191 8.11514,-10.488917 5.36149,-4.049715 11.65949,-5.844723 20.41895,-5.819656 18.58796,0.05319 29.85566,10.729899 29.85566,28.289713 0,16.202127 -9.2478,26.539949 -25.28652,28.266999 -3.93261,0.42346 -8.09247,0.37231 -11.41114,-0.1403 z m 9.86009,-9.55275 c 6.89236,-1.307111 10.92186,-8.10538 10.92186,-18.426559 0,-8.466014 -2.77064,-14.769792 -7.5786,-17.242928 -3.81671,-1.963249 -9.78754,-1.969857 -13.61923,-0.01507 -2.68883,1.371741 -5.25545,4.951734 -6.56108,9.151571 -0.62327,2.004894 -0.6873,2.760046 -0.6873,8.106431 0,5.363793 0.0624,6.094339 0.69186,8.098997 0.99162,3.158057 1.9572,4.903784 3.75459,6.788164 1.6435,1.723035 3.46751,2.816274 5.72344,3.430414 1.63601,0.44538 5.29477,0.49959 7.35446,0.10898 z"
       id="path38"
       transform="scale(0.26409521)" /><path
       style="fill:#ffffff;fill-opacity:1;stroke:#020202;stroke-width:0.294779"
       d="m 609.06693,110.57759 c -6.54892,-1.66662 -11.44553,-5.92193 -14.79608,-12.858243 -2.22152,-4.598997 -2.7063,-6.910733 -2.86975,-13.684718 -0.19522,-8.091197 0.55512,-11.998692 3.34735,-17.431554 2.92166,-5.684717 7.43261,-9.615133 13.3813,-11.659191 2.46749,-0.847865 9.38704,-0.789437 12.23334,0.103297 4.20366,1.318467 8.51346,4.680934 12.34438,9.630991 l 1.80503,2.332341 0.14739,-16.923919 0.14739,-16.92392 h 7.66426 7.66426 l 0.0748,38.395007 0.0748,38.395009 h -7.80652 -7.80652 l -0.0799,-5.81177 -0.0799,-5.811778 -1.95054,2.495508 c -4.23548,5.41884 -8.14957,8.35418 -12.78843,9.59058 -2.79203,0.74417 -8.10389,0.82471 -10.7066,0.16236 z m 17.63948,-10.53776 c 3.24356,-1.51784 5.59026,-4.375305 7.11061,-8.658239 0.63401,-1.786077 0.68067,-2.376027 0.68782,-8.69599 0.008,-7.452988 -0.13545,-8.297867 -1.98194,-11.638681 -2.88689,-5.223218 -6.35045,-7.025629 -12.94628,-6.737149 -2.42194,0.105926 -3.07547,0.253207 -4.72331,1.064431 -3.47833,1.712376 -5.95402,5.072881 -7.21564,9.794526 -0.65711,2.459238 -0.74792,11.598597 -0.14206,14.296798 0.9136,4.068656 3.90525,8.809241 6.37306,10.098756 2.32749,1.216198 4.05353,1.550688 7.53087,1.459448 3.0626,-0.0804 3.58174,-0.17661 5.30687,-0.9839 z"
       id="path39"
       transform="scale(0.26409521)" /><path
       style="fill:#ffffff;fill-opacity:1;stroke:#020202;stroke-width:0.294779"
       d="m 691.84708,110.39216 c -12.36331,-1.87582 -20.64866,-8.77949 -23.34595,-19.452738 -0.58258,-2.305295 -0.66954,-3.387085 -0.6635,-8.253821 0.008,-6.619103 0.51449,-9.234469 2.62487,-13.559849 3.75811,-7.702504 10.82575,-12.529445 20.73525,-14.161413 4.11543,-0.677758 11.20414,-0.470942 14.79874,0.431759 4.9582,1.245139 10.83215,4.739516 13.65794,8.125014 4.16584,4.990994 5.95393,10.255309 6.53384,19.236289 l 0.19497,3.019592 -21.91085,0.07559 -21.91086,0.07559 0.0683,1.592966 c 0.24031,5.606801 3.31114,10.625542 7.90852,12.925101 3.6467,1.82404 4.21144,1.91047 11.56479,1.76977 6.6215,-0.12669 6.73399,-0.13953 10.41871,-1.18968 2.04872,-0.58389 5.27804,-1.675882 7.17627,-2.426652 1.89822,-0.750768 3.50381,-1.312535 3.56798,-1.24837 0.0642,0.06417 0.0315,2.181423 -0.0727,4.705012 l -0.18932,4.58836 -2.53452,0.77326 c -3.26157,0.99508 -8.19449,2.08478 -12.11485,2.6762 -4.45725,0.67241 -13.02104,0.82702 -16.50764,0.29802 z m 19.2313,-33.67584 c -0.0689,-0.93224 -0.29966,-2.565686 -0.51282,-3.629882 -1.52551,-7.615941 -8.33749,-11.645062 -16.69366,-9.873885 -5.314,1.126357 -8.96581,4.75253 -10.55255,10.478451 -0.33573,1.211553 -0.61043,2.769254 -0.61043,3.46156 v 1.258737 h 14.24735 14.24736 z"
       id="path40"
       transform="scale(0.26409521)" /></g></svg>
