<?xml version="1.0" encoding="UTF-8" standalone="no"?>
<svg
   height="254"
   width="923"
   viewBox="-22.35 -10.25 148.98758 19.52625"
   version="1.1"
   id="svg1432"
   sodipodi:docname="stripe.svg"
   inkscape:version="1.2.2 (732a01da63, 2022-12-09, custom)"
   xmlns:inkscape="http://www.inkscape.org/namespaces/inkscape"
   xmlns:sodipodi="http://sodipodi.sourceforge.net/DTD/sodipodi-0.dtd"
   xmlns="http://www.w3.org/2000/svg"
   xmlns:svg="http://www.w3.org/2000/svg">
  <defs
     id="defs1436" />
  <sodipodi:namedview
     id="namedview1434"
     pagecolor="#505050"
     bordercolor="#eeeeee"
     borderopacity="1"
     inkscape:showpageshadow="0"
     inkscape:pageopacity="0"
     inkscape:pagecheckerboard="0"
     inkscape:deskcolor="#505050"
     showgrid="false"
     inkscape:zoom="0.93338097"
     inkscape:cx="101.24483"
     inkscape:cy="133.92174"
     inkscape:window-width="1366"
     inkscape:window-height="731"
     inkscape:window-x="0"
     inkscape:window-y="0"
     inkscape:window-maximized="1"
     inkscape:current-layer="svg1432" />
  <g
     id="g1579">
    <g
       id="g1599">
      <path
         d="m -16.35621,-20.986875 h 137 c 3.314,0 6,2.686 6,6 v 29 c 0,3.314 -2.686,6 -6,6 h -137 c -3.314,0 -6,-2.686 -6,-6 v -29 c 0,-3.314 2.686,-6 6,-6 z"
         fill="#32364E"
         fill-rule="evenodd"
         id="path1428"
         style="fill:#00001b;fill-opacity:1" />
    </g>
    <path
       d="m 49.04679,5.638125 h -1.462 l 1.132,-2.796 -2.253,-5.685 h 1.545 l 1.416,3.869 1.427,-3.869 h 1.545 z m -5.615,-2.442 c -0.507,0 -1.026,-0.188 -1.498,-0.554 v 0.413 h -1.509 v -8.481 h 1.509 v 2.985 c 0.472,-0.354 0.991,-0.543 1.498,-0.543 1.581,0 2.666,1.274 2.666,3.09 0,1.816 -1.085,3.09 -2.666,3.09 z m -0.318,-4.883 c -0.413,0 -0.826,0.177 -1.18,0.531 v 2.524 c 0.354,0.354 0.767,0.531 1.18,0.531 0.849,0 1.439,-0.731 1.439,-1.793 0,-1.061 -0.59,-1.793 -1.439,-1.793 z m -8.8,4.329 c -0.46,0.366 -0.979,0.554 -1.498,0.554 -1.569,0 -2.665,-1.274 -2.665,-3.09 0,-1.816 1.096,-3.09 2.665,-3.09 0.519,0 1.038,0.189 1.498,0.543 v -2.985 h 1.522 v 8.481 h -1.522 z m 0,-3.798 c -0.342,-0.354 -0.755,-0.531 -1.168,-0.531 -0.861,0 -1.45,0.732 -1.45,1.793 0,1.062 0.589,1.793 1.45,1.793 0.413,0 0.826,-0.177 1.168,-0.531 z m -8.988,1.675 c 0.094,0.896 0.802,1.51 1.793,1.51 0.542,0 1.144,-0.201 1.757,-0.555 v 1.262 c -0.672,0.307 -1.344,0.46 -2.005,0.46 -1.781,0 -3.031,-1.297 -3.031,-3.137 0,-1.781 1.227,-3.043 2.913,-3.043 1.545,0 2.595,1.215 2.595,2.949 0,0.165 0,0.353 -0.024,0.554 z m 1.368,-2.335 c -0.731,0 -1.297,0.542 -1.368,1.356 h 2.571 c -0.047,-0.802 -0.531,-1.356 -1.203,-1.356 z m -5.343,0.931 v 3.94 h -1.51 v -5.898 h 1.51 v 0.59 c 0.424,-0.472 0.943,-0.731 1.45,-0.731 0.166,0 0.331,0.012 0.496,0.059 v 1.345 c -0.165,-0.048 -0.354,-0.071 -0.531,-0.071 -0.495,0 -1.026,0.271 -1.415,0.766 z m -6.736,1.404 c 0.095,0.896 0.802,1.51 1.793,1.51 0.543,0 1.144,-0.201 1.758,-0.555 v 1.262 c -0.673,0.307 -1.345,0.46 -2.006,0.46 -1.781,0 -3.031,-1.297 -3.031,-3.137 0,-1.781 1.227,-3.043 2.913,-3.043 1.546,0 2.595,1.215 2.595,2.949 0,0.165 0,0.353 -0.023,0.554 z m 1.368,-2.335 c -0.731,0 -1.297,0.542 -1.368,1.356 h 2.572 c -0.048,-0.802 -0.531,-1.356 -1.204,-1.356 z m -6.641,4.871 -1.203,-4.01 -1.191,4.01 h -1.357 l -2.028,-5.898 h 1.509 l 1.192,4.011 1.191,-4.011 h 1.368 l 1.191,4.011 1.192,-4.011 h 1.509 l -2.017,5.898 z m -9.224,0.141 c -1.781,0 -3.043,-1.285 -3.043,-3.09 0,-1.816 1.262,-3.09 3.043,-3.09 1.781,0 3.031,1.274 3.031,3.09 0,1.805 -1.25,3.09 -3.031,3.09 z m 0,-4.918 c -0.885,0 -1.498,0.743 -1.498,1.828 0,1.085 0.613,1.828 1.498,1.828 0.873,0 1.486,-0.743 1.486,-1.828 0,-1.085 -0.613,-1.828 -1.486,-1.828 z m -6.629,1.864 h -1.357 v 2.913 h -1.509 v -8.115 h 2.866 c 1.651,0 2.83,1.073 2.83,2.607 0,1.533 -1.179,2.595 -2.83,2.595 z m -0.213,-3.975 h -1.144 v 2.748 h 1.144 c 0.873,0 1.486,-0.554 1.486,-1.368 0,-0.826 -0.613,-1.38 -1.486,-1.38 z m 121.195,4.714 h -7.25 c 0.165,1.736 1.437,2.247 2.88,2.247 1.471,0 2.629,-0.309 3.639,-0.819 v 2.984 c -1.007,0.557 -2.335,0.96 -4.106,0.96 -3.607,0 -6.135,-2.259 -6.135,-6.726 0,-3.772 2.144,-6.768 5.668,-6.768 3.518,0 5.354,2.995 5.354,6.788 0,0.358 -0.033,1.134 -0.05,1.334 z m -5.328,-5.102 c -0.926,0 -1.955,0.699 -1.955,2.368 h 3.829 c 0,-1.667 -0.964,-2.368 -1.874,-2.368 z m -11.518,10.474 c -1.296,0 -2.088,-0.547 -2.62,-0.937 l -0.008,4.191 -3.703,0.788 -0.002,-17.289 h 3.262 l 0.192,0.915 c 0.513,-0.479 1.45,-1.162 2.902,-1.162 2.601,0 5.051,2.343 5.051,6.655 0,4.707 -2.424,6.839 -5.074,6.839 z m -0.862,-10.213 c -0.851,0 -1.383,0.311 -1.769,0.734 l 0.022,5.504 c 0.359,0.389 0.878,0.703 1.747,0.703 1.369,0 2.287,-1.491 2.287,-3.485 0,-1.938 -0.932,-3.456 -2.287,-3.456 z m -10.702,-3.034 h 3.718 v 12.982 h -3.718 z m 0,-4.145 3.718,-0.791 v 3.017 l -3.718,0.79 z m -3.841,8.326 v 8.801 h -3.702 v -12.982 h 3.202 l 0.233,1.095 c 0.866,-1.594 2.598,-1.271 3.091,-1.094 v 3.404 c -0.471,-0.152 -1.949,-0.374 -2.824,0.776 z m -7.817,4.246 c 0,2.183 2.337,1.504 2.812,1.314 v 3.015 c -0.494,0.271 -1.389,0.491 -2.6,0.491 -2.198,0 -3.847,-1.619 -3.847,-3.812 l 0.016,-11.883 3.616,-0.768 0.003,3.216 h 2.813 v 3.158 h -2.813 z m -4.494,0.632 c 0,2.666 -2.122,4.188 -5.202,4.188 -1.277,0 -2.673,-0.248 -4.05,-0.841 v -3.536 c 1.243,0.676 2.827,1.183 4.054,1.183 0.826,0 1.421,-0.222 1.421,-0.906 0,-1.768 -5.631,-1.102 -5.631,-5.203 0,-2.622 2.003,-4.191 5.007,-4.191 1.227,0 2.454,0.189 3.681,0.678 v 3.488 c -1.127,-0.608 -2.557,-0.953 -3.684,-0.953 -0.776,0 -1.258,0.224 -1.258,0.803 0,1.666 5.662,0.874 5.662,5.29 z"
       fill="#ffffff"
       fill-rule="evenodd"
       id="path1430" />
  </g>
</svg>
